<svg xmlns="http://www.w3.org/2000/svg" version="1.1" xmlns:xlink="http://www.w3.org/1999/xlink" xmlns:svgjs="http://svgjs.com/svgjs" width="500" height="500"><svg xmlns="http://www.w3.org/2000/svg" xmlns:xlink="http://www.w3.org/1999/xlink" width="500" zoomAndPan="magnify" viewBox="0 0 375 374.999991" height="500" preserveAspectRatio="xMidYMid meet" version="1.0"><defs><clipPath id="SvgjsClipPath1000"><path d="M 84.234375 14.054688 L 290.484375 14.054688 L 290.484375 361 L 84.234375 361 Z M 84.234375 14.054688 " clip-rule="nonzero"></path></clipPath></defs><g clip-path="url(#b34a633be3)"><path fill="#356238" d="M 107.785156 37.121094 C 107.851562 36.59375 107.859375 35.875 108.007812 35.363281 C 108.191406 34.742188 108.664062 34 108.945312 33.417969 C 109.09375 33.222656 109.445312 32.761719 109.445312 32.761719 C 108.722656 33.015625 107.710938 33.238281 107.042969 33.605469 C 106.398438 33.957031 105.117188 35.109375 105.117188 35.109375 C 104.632812 34.722656 104.035156 34.132812 103.5 33.816406 C 103 33.519531 102.28125 32.90625 101.722656 33.0625 C 101.09375 33.234375 100.761719 34.25 100.484375 34.839844 C 99.648438 36.605469 99.1875 39.226562 98.960938 41.164062 C 98.769531 42.789062 98.574219 45.023438 98.960938 46.613281 C 99.3125 48.054688 100.554688 49.691406 101.210938 51.023438 C 102.230469 53.109375 103.792969 55.816406 104.496094 58.027344 C 104.800781 58.996094 105.035156 60.34375 105.148438 61.351562 C 105.75 66.78125 104.777344 74.109375 105.148438 79.558594 C 105.226562 80.742188 105.601562 82.300781 105.625 83.488281 C 105.65625 85.351562 105.425781 87.851562 105.027344 89.675781 C 104.199219 93.503906 101.898438 98.261719 100.550781 101.9375 C 98.648438 107.132812 95.617188 113.90625 94.1875 119.25 C 93.769531 120.808594 93.179688 124.527344 93.179688 124.527344 C 93.878906 123.710938 95.507812 121.8125 95.507812 121.8125 C 94.675781 126.101562 93.289062 131.773438 92.734375 136.109375 C 92.285156 139.632812 91.96875 147.917969 91.96875 147.921875 C 92.476562 147.347656 93.664062 146.007812 93.664062 146.007812 C 93.457031 147.699219 93.136719 149.953125 92.96875 151.648438 C 92.589844 155.457031 92.128906 160.542969 92.066406 164.367188 C 92 168.339844 92.113281 173.660156 92.5625 177.609375 C 92.796875 179.703125 93.8125 184.515625 93.8125 184.519531 C 94.113281 183.882812 94.816406 182.40625 94.816406 182.40625 C 95 183.972656 95.230469 186.066406 95.429688 187.628906 C 96.128906 193.023438 97.109375 200.214844 97.996094 205.582031 C 99.449219 214.375 101.566406 226.078125 103.539062 234.765625 C 104.140625 237.402344 105.792969 243.492188 105.792969 243.496094 C 106.070312 242.621094 106.722656 240.585938 106.722656 240.585938 C 107.921875 244.421875 109.851562 249.449219 110.71875 253.375 C 111.730469 257.941406 112.386719 264.164062 112.75 268.824219 C 113.253906 275.300781 113.582031 283.988281 113.203125 290.476562 C 112.824219 296.925781 111.617188 305.496094 110.246094 311.808594 C 109.769531 313.996094 108.964844 316.875 108.210938 318.984375 C 107.027344 322.28125 105.664062 326.929688 103.464844 329.660156 C 102.839844 330.4375 101.804688 331.359375 100.890625 331.765625 C 99.535156 332.371094 97.425781 332.0625 95.980469 332.414062 C 94.84375 332.6875 93.363281 333.210938 92.308594 333.710938 C 91.125 334.269531 89.515625 335.058594 88.585938 335.976562 C 87.539062 337.007812 86.523438 338.761719 85.992188 340.132812 C 85.800781 340.628906 85.617188 341.859375 85.617188 341.859375 C 86.019531 341.894531 86.964844 341.96875 86.964844 341.96875 C 86.964844 342.292969 87.109375 342.757812 86.964844 343.046875 C 86.820312 343.339844 86.316406 343.453125 86.101562 343.695312 C 85.410156 344.484375 84.535156 346.828125 84.535156 346.828125 C 85.574219 347.214844 86.917969 347.851562 87.992188 348.121094 C 89.808594 348.578125 92.324219 348.78125 94.199219 348.878906 C 97.191406 349.035156 101.195312 348.816406 104.1875 348.640625 C 107.5 348.445312 112.03125 348.589844 115.191406 347.59375 C 116.21875 347.269531 117.566406 346.644531 118.382812 345.941406 C 119.734375 344.78125 120.753906 342.53125 121.738281 341.046875 C 122.921875 339.265625 124.386719 336.816406 125.589844 335.050781 C 126.816406 333.253906 128.339844 330.753906 129.832031 329.171875 C 130.824219 328.121094 132.527344 327.125 133.535156 326.085938 C 134.777344 324.808594 136.425781 323.011719 137.175781 321.394531 C 138.125 319.355469 138.121094 316.230469 138.660156 314.050781 C 139.058594 312.441406 139.679688 310.316406 140.203125 308.742188 C 140.9375 306.527344 142.117188 303.648438 142.957031 301.472656 C 143.8125 299.261719 145.035156 296.347656 145.84375 294.121094 C 146.480469 292.367188 147.214844 289.988281 147.832031 288.230469 C 148.179688 287.242188 148.304688 285.707031 149.027344 284.953125 C 149.347656 284.621094 149.945312 284.285156 150.40625 284.277344 C 150.859375 284.269531 151.375 284.703125 151.785156 284.890625 C 152.636719 285.28125 153.730469 285.898438 154.605469 286.238281 C 155.875 286.734375 158.953125 287.554688 158.957031 287.554688 C 158.515625 287.03125 157.863281 286.378906 157.484375 285.808594 C 157.023438 285.113281 156.226562 283.328125 156.226562 283.328125 C 157.378906 284.339844 158.824219 285.792969 160.058594 286.699219 C 160.894531 287.3125 163 288.507812 163 288.507812 C 162.90625 288.339844 162.757812 288.132812 162.695312 287.953125 C 162.332031 286.996094 161.933594 285.589844 162.140625 284.585938 C 162.210938 284.246094 162.402344 283.761719 162.695312 283.574219 C 162.980469 283.386719 163.492188 283.417969 163.828125 283.480469 C 164.328125 283.578125 164.921875 283.964844 165.328125 284.265625 C 166.828125 285.371094 168.761719 287.140625 169.523438 288.839844 C 170.003906 289.910156 170.042969 291.542969 170.03125 292.714844 C 170.019531 293.96875 169.484375 295.59375 169.394531 296.847656 C 169.25 298.910156 169.21875 301.699219 169.539062 303.742188 C 169.820312 305.539062 170.582031 307.871094 171.257812 309.558594 C 172.273438 312.09375 174.050781 315.289062 175.46875 317.617188 C 176.40625 319.160156 178.898438 322.5625 178.898438 322.5625 C 176.90625 322.253906 174.265625 321.71875 172.261719 321.539062 C 170.515625 321.378906 168.175781 321.320312 166.425781 321.359375 C 163.929688 321.417969 160.59375 321.585938 158.136719 322.027344 C 155.902344 322.429688 152.996094 323.335938 150.851562 324.078125 C 149.726562 324.464844 147.179688 325.5625 147.179688 325.566406 C 147.800781 325.835938 149.246094 326.472656 149.246094 326.472656 C 148.027344 327.042969 146.378906 327.761719 145.179688 328.378906 C 143.496094 329.238281 141.246094 330.398438 139.683594 331.464844 C 138.75 332.105469 136.742188 333.832031 136.742188 333.832031 C 137.757812 333.859375 140.132812 333.929688 140.132812 333.929688 C 137.804688 335.796875 134.640625 338.210938 132.375 340.152344 C 130.953125 341.371094 127.769531 344.34375 127.765625 344.34375 C 128.402344 344.441406 129.886719 344.667969 129.886719 344.667969 C 129.539062 344.957031 129.132812 345.425781 128.734375 345.636719 C 127.78125 346.136719 126.296875 346.277344 125.234375 346.464844 C 123.816406 346.710938 120.472656 346.980469 120.472656 346.980469 C 120.957031 347.382812 121.558594 347.984375 122.09375 348.324219 C 123.171875 349.003906 124.773438 349.625 125.980469 350.035156 C 128.445312 350.871094 131.871094 351.523438 134.429688 351.988281 C 136.300781 352.328125 140.714844 352.835938 140.714844 352.835938 C 139.914062 353.105469 138.039062 353.726562 138.039062 353.726562 C 138.664062 354.046875 139.464844 354.542969 140.121094 354.789062 C 141.664062 355.375 143.851562 355.742188 145.472656 356.0625 C 148.492188 356.667969 152.554688 357.328125 155.617188 357.65625 C 157.984375 357.910156 161.164062 358.058594 163.546875 358.140625 C 165.726562 358.21875 170.816406 358.210938 170.816406 358.210938 C 170.828125 358.355469 170.855469 358.699219 170.855469 358.699219 C 172.46875 359.039062 174.597656 359.609375 176.230469 359.835938 C 179.371094 360.273438 183.609375 360.355469 186.777344 360.457031 C 192.757812 360.644531 200.746094 360.660156 206.730469 360.457031 C 210.675781 360.324219 215.9375 360.042969 219.859375 359.601562 C 222.355469 359.324219 228.128906 358.3125 228.128906 358.3125 C 227.628906 358.929688 226.460938 360.363281 226.460938 360.363281 C 231.035156 360.292969 237.136719 360.277344 241.710938 360.132812 C 245.558594 360.011719 250.707031 360 254.53125 359.527344 C 258.75 359.007812 264.378906 358.046875 268.414062 356.71875 C 270.734375 355.957031 273.765625 354.660156 275.839844 353.367188 C 276.929688 352.6875 279.1875 350.6875 279.191406 350.6875 C 279.265625 351.167969 279.445312 352.285156 279.445312 352.285156 C 279.972656 351.945312 280.722656 351.554688 281.199219 351.152344 C 282.675781 349.910156 284.367188 347.917969 285.425781 346.304688 C 286.523438 344.632812 287.65625 342.183594 288.289062 340.289062 C 288.707031 339.039062 289.207031 335.996094 289.207031 335.996094 C 289.367188 336.339844 289.5 336.839844 289.734375 337.136719 C 289.902344 337.347656 290.433594 337.703125 290.433594 337.703125 C 290.367188 335.996094 290.53125 333.691406 290.214844 332.011719 C 289.9375 330.527344 289.222656 328.617188 288.597656 327.238281 C 287.789062 325.460938 286.417969 323.222656 285.300781 321.617188 C 283.761719 319.410156 281.210938 316.855469 279.578125 314.71875 C 277.300781 311.730469 274.152344 307.773438 272.425781 304.433594 C 271.746094 303.113281 270.777344 301.292969 270.644531 299.8125 C 270.59375 299.265625 270.527344 298.402344 270.898438 297.996094 C 271.164062 297.699219 271.773438 297.625 272.171875 297.628906 C 272.679688 297.640625 273.773438 298.175781 273.773438 298.175781 C 273.761719 297.902344 273.800781 297.53125 273.738281 297.265625 C 273.410156 295.921875 272.257812 294.398438 271.539062 293.214844 C 270.320312 291.210938 267.113281 286.757812 267.113281 286.757812 C 267.796875 286.867188 269.386719 287.117188 269.386719 287.117188 C 268.308594 284.03125 267.121094 279.820312 265.796875 276.832031 C 263.84375 272.410156 260.648438 266.777344 258.023438 262.71875 C 255.917969 259.464844 252.78125 255.339844 250.285156 252.375 C 248.539062 250.296875 245.394531 248.15625 244.105469 245.769531 C 243.257812 244.199219 243.300781 241.648438 242.582031 240.015625 C 242.25 239.25 241.605469 238.335938 241.144531 237.644531 C 240.226562 236.273438 238.910156 234.507812 237.863281 233.234375 C 236.484375 231.558594 232.996094 227.890625 232.996094 227.890625 C 233.738281 227.933594 235.476562 228.035156 235.476562 228.035156 C 233.902344 225.914062 231.820312 223.078125 230.226562 220.972656 C 227.769531 217.71875 224.460938 213.402344 221.933594 210.199219 C 220.265625 208.085938 216.292969 203.214844 216.292969 203.214844 C 216.761719 203.351562 217.378906 203.585938 217.859375 203.664062 C 218.460938 203.761719 219.878906 203.738281 219.878906 203.738281 C 218.347656 202.199219 216.273438 200.179688 214.78125 198.609375 C 212.328125 196.03125 209.03125 192.609375 206.824219 189.820312 C 203.851562 186.0625 200.203125 180.785156 197.808594 176.636719 C 196.722656 174.757812 195.546875 172.109375 194.609375 170.152344 C 194.257812 169.417969 193.617188 168.496094 193.464844 167.699219 C 193.273438 166.730469 193.296875 165.335938 193.660156 164.417969 C 194.003906 163.558594 195.042969 162.757812 195.636719 162.046875 C 194.773438 161.453125 193.597656 160.6875 192.75 160.070312 C 192.066406 159.570312 190.515625 158.34375 190.515625 158.339844 C 190.835938 158.226562 191.246094 158.023438 191.578125 157.957031 C 192.285156 157.808594 193.984375 157.859375 193.984375 157.859375 C 193.40625 156.300781 192.796875 154.152344 192.058594 152.660156 C 191.128906 150.789062 188.304688 146.789062 188.304688 146.789062 C 189.457031 147.164062 192.152344 148.039062 192.152344 148.042969 C 190.191406 144.488281 187.566406 139.757812 185.609375 136.199219 C 183.78125 132.882812 181.097656 128.585938 179.542969 125.128906 C 177.917969 121.515625 176.417969 116.429688 175.101562 112.695312 C 174.574219 111.203125 173.953125 109.191406 173.367188 107.722656 C 173.222656 107.355469 172.714844 106.890625 172.839844 106.515625 C 172.902344 106.332031 173.175781 106.175781 173.367188 106.140625 C 174.226562 105.972656 175.234375 106.980469 176.082031 107.195312 C 177.46875 107.542969 179.394531 107.761719 180.828125 107.722656 C 182.316406 107.679688 184.289062 107.292969 185.726562 106.894531 C 186.519531 106.671875 187.871094 106.621094 188.289062 105.914062 C 188.609375 105.363281 188.277344 104.402344 188.0625 103.804688 C 187.710938 102.84375 186.722656 101.828125 186.101562 101.015625 C 184.824219 99.347656 182.972656 97.242188 181.582031 95.664062 C 179.792969 93.640625 177.152344 91.167969 175.472656 89.054688 C 173.636719 86.75 171.238281 83.578125 169.941406 80.933594 C 168.96875 78.945312 168.355469 76.019531 167.609375 73.933594 C 166.949219 72.101562 166.082031 69.648438 165.277344 67.871094 C 163.523438 64.003906 160.9375 58.929688 158.5625 55.40625 C 157.527344 53.871094 156.152344 51.730469 154.6875 50.597656 C 154.117188 50.15625 153.191406 49.8125 152.53125 49.519531 C 151.203125 48.929688 149.203125 48.621094 148.007812 47.796875 C 147.28125 47.296875 146.535156 46.34375 146 45.644531 C 144.425781 43.589844 142.921875 40.449219 141.597656 38.226562 C 139.296875 34.363281 136 29.339844 133.910156 25.359375 C 132.910156 23.449219 131.878906 20.746094 130.878906 18.832031 C 130.222656 17.570312 129.738281 15.4375 128.511719 14.714844 C 128.066406 14.453125 127.289062 14.351562 126.800781 14.519531 C 126.132812 14.75 125.683594 15.742188 125.171875 16.230469 C 124.617188 16.753906 123.792969 17.359375 123.246094 17.886719 C 122.074219 19.027344 120.484375 20.5625 119.59375 21.933594 C 119.027344 22.804688 118.464844 24.085938 118.148438 25.074219 C 117.746094 26.335938 117.5625 28.105469 117.363281 29.414062 C 117.0625 31.414062 117.101562 34.160156 116.578125 36.113281 C 116.382812 36.835938 116.125 37.859375 115.640625 38.433594 C 115.191406 38.96875 114.335938 39.480469 113.660156 39.667969 C 113.128906 39.8125 112.363281 39.792969 111.824219 39.667969 C 111.199219 39.519531 110.464844 39.03125 109.917969 38.695312 C 109.242188 38.277344 107.785156 37.121094 107.785156 37.121094 Z M 107.785156 37.121094 " fill-opacity="1" fill-rule="evenodd"></path><path stroke-linecap="round" transform="matrix(0.570528, 0, 0, 0.570528, -168.853696, -15.893506)" fill="none" stroke-linejoin="round" d="M 785.761246 645.329388 C 785.761246 645.329388 785.446297 643.371225 785.316209 642.529078 C 785.309363 642.529078 781.351956 646.034601 779.44172 647.225931 C 775.806109 649.492197 770.49305 651.765309 766.426096 653.10042 C 759.353429 655.428307 749.487299 657.112601 742.092837 658.023216 C 735.389893 658.851669 726.36591 658.872209 719.621886 659.084458 C 711.604372 659.337787 700.909788 659.365174 692.892273 659.488415 C 692.892273 659.488415 694.939444 656.975667 695.815825 655.893884 C 695.815825 655.893884 685.696366 657.667186 681.321309 658.153303 C 674.447197 658.926983 665.224659 659.419947 658.309467 659.652736 C 647.820285 660.008766 633.818733 659.981379 623.336398 659.652736 C 617.783704 659.474721 610.355008 659.33094 604.850241 658.564107 C 601.98831 658.166997 598.256845 657.167375 595.429148 656.57171 C 595.429148 656.57171 595.381221 655.969198 595.360681 655.715869 C 595.360681 655.715869 586.439398 655.729563 582.618926 655.592628 C 578.442424 655.448847 572.86919 655.188672 568.720075 654.743634 C 563.352243 654.16851 556.231649 653.011413 550.939131 651.950171 C 548.09774 651.388739 544.263575 650.745147 541.559118 649.718139 C 540.408869 649.286795 539.00529 648.417261 537.909814 647.855829 C 537.909814 647.855829 541.196242 646.7672 542.599821 646.294776 C 542.599821 646.294776 534.863022 645.404702 531.583441 644.809037 C 527.098836 643.994277 521.094258 642.850874 516.773975 641.385675 C 514.658337 640.666769 511.85118 639.578139 509.961484 638.386809 C 509.023483 637.791144 507.969087 636.736749 507.120093 636.031536 C 507.120093 636.031536 512.98089 635.559112 515.466251 635.127768 C 517.32856 634.799125 519.930315 634.552643 521.600916 633.676263 C 522.299282 633.30654 523.011341 632.484933 523.6207 631.978275 C 523.6207 631.978275 521.018944 631.581165 519.902928 631.409997 C 519.909775 631.409997 525.489856 626.199639 527.982063 624.063461 C 531.953164 620.660639 537.499011 616.429363 541.579659 613.156629 C 541.579659 613.156629 537.41685 613.033388 535.636702 612.985461 C 535.636702 612.985461 539.155918 609.959208 540.792285 608.836346 C 543.530975 606.96719 547.474688 604.933713 550.425627 603.427433 C 552.527571 602.345651 555.416889 601.085853 557.553067 600.086232 C 557.553067 600.086232 555.019779 598.970215 553.93115 598.497791 C 553.93115 598.490945 558.395214 596.567015 560.367071 595.889189 C 564.125923 594.588312 569.219886 592.999872 573.136212 592.294659 C 577.442802 591.520979 583.289905 591.22657 587.664962 591.123869 C 590.732295 591.055402 594.833483 591.158103 597.893969 591.438818 C 601.406339 591.753768 606.034724 592.691769 609.526554 593.23266 C 609.526554 593.23266 605.158344 587.269163 603.51513 584.564707 C 601.029769 580.484059 597.914509 574.883438 596.134361 570.439914 C 594.949877 567.482129 593.614766 563.394634 593.121802 560.245141 C 592.56037 556.664304 592.615144 551.775742 592.868473 548.160672 C 593.025948 545.962873 593.963949 543.114636 593.984489 540.916837 C 594.005029 538.86282 593.936562 536.000889 593.094415 534.124886 C 591.759303 531.146561 588.370175 528.044995 585.741033 526.107372 C 585.028973 525.580174 583.988271 524.902348 583.11189 524.73118 C 582.523072 524.621632 581.626151 524.566859 581.12634 524.895501 C 580.612836 525.224144 580.277346 526.073138 580.154105 526.668803 C 579.791229 528.428411 580.489595 530.893232 581.12634 532.57068 C 581.235888 532.885629 581.496063 533.248506 581.660385 533.542915 C 581.660385 533.542915 577.97 531.447817 576.504801 530.372881 C 574.341236 528.784441 571.807948 526.237459 569.788164 524.464158 C 569.788164 524.464158 571.184896 527.593111 571.992809 528.811828 C 572.656942 529.81145 573.800345 530.954853 574.574025 531.872314 C 574.567178 531.872314 569.171959 530.434502 566.946773 529.564968 C 565.413107 528.969303 563.496024 527.88752 562.003438 527.202848 C 561.284532 526.874205 560.380764 526.114218 559.586544 526.127912 C 558.778631 526.141605 557.731082 526.730424 557.169651 527.312395 C 555.903007 528.633813 555.683911 531.324576 555.074553 533.056797 C 553.99277 536.137823 552.705586 540.307479 551.58957 543.381658 C 550.172298 547.284291 548.029273 552.391948 546.52984 556.267194 C 545.057795 560.080819 542.990084 565.126855 541.7029 569.008948 C 540.785438 571.768178 539.696809 575.492797 538.998443 578.313647 C 538.053595 582.134119 538.060442 587.611499 536.396688 591.185489 C 535.082117 594.020033 532.192799 597.169527 530.015541 599.408406 C 528.249086 601.229635 525.263914 602.975549 523.524846 604.817318 C 520.909397 607.590242 518.239174 611.972146 516.089303 615.121639 C 513.980511 618.216358 511.41299 622.509255 509.338432 625.631361 C 507.613058 628.233117 505.826062 632.17683 503.457096 634.210307 C 502.02613 635.442718 499.66401 636.538194 497.863322 637.106472 C 492.324321 638.852386 484.382121 638.599058 478.576098 638.941394 C 473.331507 639.249497 466.313614 639.632913 461.069023 639.359044 C 457.782596 639.187876 453.373305 638.831846 450.189578 638.03078 C 448.306729 637.558356 445.951455 636.442339 444.130227 635.764514 C 444.130227 635.764514 445.663893 631.656479 446.875763 630.273441 C 447.252333 629.848944 448.135561 629.650389 448.388889 629.136884 C 448.642218 628.630227 448.388889 627.815466 448.388889 627.247188 C 448.388889 627.247188 446.731982 627.1171 446.026769 627.05548 C 446.026769 627.05548 446.348565 624.898762 446.684055 624.029228 C 447.615209 621.626027 449.395358 618.551848 451.23028 616.744313 C 452.859801 615.135332 455.680651 613.752294 457.755209 612.773212 C 459.603824 611.896832 462.198733 610.97937 464.19113 610.5001 C 466.724418 609.883895 470.421649 610.424786 472.797463 609.363543 C 474.399596 608.651484 476.213978 607.035657 477.309454 605.673159 C 481.16416 600.887298 483.553667 592.739696 485.628225 586.96106 C 486.949643 583.263829 488.360068 578.217793 489.195368 574.383627 C 491.598569 563.31932 493.714207 548.297606 494.378339 536.993664 C 495.042471 525.621254 494.467346 510.394139 493.584119 499.042269 C 492.947373 490.874127 491.797124 479.967294 490.023822 471.963473 C 488.503849 465.082515 485.121567 456.27078 483.019623 449.547297 C 483.019623 449.547297 481.87622 453.11444 481.390102 454.648107 C 481.390102 454.64126 478.493938 443.967216 477.439542 439.345677 C 473.981946 424.118561 470.271021 403.605774 467.72404 388.193797 C 466.169833 378.786397 464.451305 366.181577 463.225742 356.726251 C 462.876559 353.987561 462.472602 350.317716 462.150806 347.57218 C 462.150806 347.57218 460.918395 350.160242 460.391198 351.276258 C 460.391198 351.269411 458.611049 342.834246 458.200246 339.164402 C 457.412872 332.242363 457.214317 322.917124 457.330712 315.954005 C 457.440259 309.251062 458.248173 300.336626 458.912305 293.66107 C 459.206714 290.689591 459.768146 286.739031 460.131022 283.774399 C 460.131022 283.774399 458.049618 286.122826 457.159544 287.129295 C 457.159544 287.122448 457.714128 272.600545 458.501502 266.424799 C 459.473737 258.824935 461.904324 248.883491 463.362676 241.365787 C 463.362676 241.365787 460.507592 244.693295 459.282028 246.124261 C 459.282028 246.124261 460.315884 239.606179 461.048483 236.874336 C 463.554384 227.508016 468.867443 215.635796 472.201798 206.529652 C 474.563918 200.086884 478.596639 191.747573 480.048144 185.037783 C 480.74651 181.840363 481.150467 177.458459 481.095693 174.192571 C 481.054613 172.111167 480.397327 169.379324 480.260393 167.304766 C 479.609954 157.753586 481.314788 144.90913 480.260393 135.392183 C 480.061838 133.625728 479.651034 131.263608 479.11699 129.56562 C 477.884579 125.690374 475.145889 120.945594 473.358894 117.289443 C 472.208644 114.95471 470.031386 112.085932 469.415181 109.559491 C 468.737355 106.772874 469.079691 102.856547 469.415181 100.00831 C 469.812291 96.612334 470.620204 92.018182 472.085403 88.923463 C 472.571521 87.889607 473.153492 86.109459 474.255815 85.808203 C 475.234897 85.534334 476.494694 86.60927 477.371075 87.129621 C 478.309076 87.684206 479.356625 88.718061 480.205619 89.395887 C 480.205619 89.395887 482.451344 87.376103 483.581054 86.759898 C 484.751844 86.116306 486.525146 85.726042 487.79179 85.281005 C 487.79179 85.281005 487.175584 86.088919 486.915409 86.431255 C 486.422445 87.451417 485.593991 88.752295 485.272195 89.840924 C 485.012019 90.737845 484.998326 91.997642 484.881932 92.92195 C 484.881932 92.92195 487.43576 94.94858 488.620243 95.68118 C 489.578785 96.269998 490.865969 97.125839 491.961445 97.386014 C 492.906293 97.60511 494.248251 97.639343 495.179406 97.386014 C 496.363889 97.057372 497.863322 96.160451 498.650695 95.222449 C 499.499689 94.215981 499.951573 92.422139 500.293909 91.155495 C 501.21137 87.732133 501.142903 82.918885 501.670101 79.413362 C 502.019284 77.119709 502.34108 74.018143 503.046292 71.806651 C 503.600877 70.07443 504.586805 67.828704 505.57958 66.301884 C 507.140634 63.898684 509.92725 61.207921 511.981268 59.208678 C 512.939809 58.28437 514.384468 57.223128 515.356703 56.305666 C 516.253624 55.449826 517.040997 53.710758 518.211787 53.306801 C 519.067628 53.012392 520.430126 53.190407 521.210653 53.649137 C 523.360524 54.915781 524.209518 58.654093 525.359768 60.865585 C 527.112529 64.22048 528.920065 68.958414 530.672826 72.306462 C 534.335824 79.283274 540.114459 88.088162 544.14718 94.859573 C 546.46822 98.755359 549.104209 104.260126 551.863439 107.861503 C 552.80144 109.087067 554.109165 110.757668 555.382655 111.634048 C 557.477753 113.078707 560.983276 113.619599 563.311163 114.653454 C 564.468259 115.166958 566.090933 115.76947 567.090555 116.54315 C 569.658076 118.5287 572.068123 122.280705 573.882505 124.971468 C 578.045314 131.147214 582.577846 140.041109 585.652025 146.819366 C 587.06245 149.934626 588.582423 154.234369 589.73952 157.445483 C 591.047244 161.101634 592.12218 166.229831 593.827014 169.714814 C 596.100127 174.350046 600.304016 179.909587 603.521976 183.949154 C 606.466068 187.653232 611.094454 191.987209 614.230254 195.533812 C 616.667688 198.299889 619.913035 201.990274 622.151914 204.913825 C 623.240543 206.337944 624.972765 208.118092 625.58897 209.802386 C 625.96554 210.849935 626.547511 212.53423 625.98608 213.499618 C 625.25348 214.738875 622.884514 214.827882 621.494629 215.218146 C 618.975034 215.916511 615.517438 216.594337 612.908836 216.669651 C 610.396088 216.738118 607.020653 216.354702 604.590065 215.745343 C 603.104326 215.368774 601.337871 213.602319 599.831592 213.896728 C 599.496102 213.958348 599.016832 214.232217 598.907284 214.554013 C 598.688189 215.211299 599.578263 216.026059 599.831592 216.669651 C 600.858601 219.24402 601.94723 222.770083 602.871538 225.385532 C 605.178884 231.931 607.808026 240.845436 610.656264 247.178656 C 613.38126 253.238008 618.08496 260.769405 621.289227 266.582274 C 624.719436 272.81964 629.320435 281.111024 632.757491 287.341543 C 632.757491 287.334696 628.033251 285.80103 626.013467 285.143744 C 626.013467 285.143744 630.963649 292.15479 632.593169 295.434372 C 633.8872 298.04982 634.955289 301.815519 635.968605 304.547362 C 635.968605 304.547362 632.990279 304.458355 631.751022 304.71853 C 631.169051 304.834925 630.450144 305.190954 629.888713 305.389509 C 629.888713 305.396356 632.606863 307.546227 633.80504 308.422608 C 635.290779 309.504391 637.351643 310.846349 638.864769 311.887051 C 637.824067 313.133155 636.002838 314.536733 635.400326 316.043013 C 634.763581 317.651993 634.722501 320.096274 635.05799 321.794261 C 635.325012 323.190993 636.447875 324.80682 637.06408 326.094005 C 638.707294 329.524214 640.768159 334.166293 642.671548 337.459567 C 646.86859 344.730789 653.263431 353.980714 658.473788 360.567263 C 662.342188 365.455825 668.120823 371.453555 672.420567 375.972394 C 675.036015 378.724777 678.671626 382.264534 681.355542 384.962143 C 681.355542 384.962143 678.870181 385.003223 677.815786 384.832055 C 676.973638 384.695121 675.891856 384.284317 675.070249 384.044682 C 675.070249 384.044682 682.033368 392.582548 684.956919 396.286626 C 689.38675 401.90094 695.185926 409.466571 699.492516 415.169892 C 702.285979 418.860277 705.935284 423.830999 708.694514 427.54877 C 708.694514 427.54877 705.647721 427.370756 704.346844 427.295442 C 704.346844 427.295442 710.460969 433.724516 712.877863 436.661761 C 714.712785 438.893793 717.020131 441.988513 718.629111 444.391713 C 719.437025 445.603583 720.566734 447.205717 721.148706 448.547675 C 722.408503 451.409606 722.333189 455.880517 723.818929 458.6329 C 726.078348 462.816249 731.589961 466.568254 734.650447 470.210712 C 739.025504 475.407376 744.523424 482.637517 748.213808 488.340839 C 752.814807 495.454585 758.415428 505.327562 761.83879 513.078055 C 764.15983 518.315799 766.241234 525.696568 768.13093 531.105481 C 768.13093 531.105481 765.344314 530.66729 764.146137 530.475582 C 764.146137 530.475582 769.767298 538.280848 771.903476 541.793218 C 773.163273 543.867775 775.183057 546.537998 775.758182 548.893271 C 775.867729 549.358849 775.799262 550.009287 775.819802 550.488558 C 775.819802 550.488558 773.902719 549.550557 773.012645 549.530017 C 772.314279 549.52317 771.24619 549.653258 770.780613 550.173609 C 770.130174 550.885668 770.246568 552.398794 770.335576 553.357336 C 770.568364 555.952244 772.266352 559.142818 773.457682 561.457011 C 776.483935 567.310961 782.002395 574.246693 785.994035 579.484437 C 788.855966 583.229595 793.326877 587.707353 796.024487 591.575753 C 797.98265 594.389757 800.38585 598.31293 801.803122 601.42819 C 802.898598 603.845083 804.151549 607.193132 804.637666 609.794887 C 805.192251 612.738979 804.904689 616.778546 805.021083 619.770565 C 805.021083 619.770565 804.089928 619.147513 803.795519 618.77779 C 803.384716 618.257439 803.151927 617.381058 802.871211 616.778546 C 802.871211 616.778546 801.994831 622.112145 801.262231 624.303097 C 800.153062 627.623758 798.167511 631.916654 796.243582 634.847053 C 794.388119 637.67475 791.423488 641.166579 788.835426 643.343838 C 788.000125 644.04905 786.685554 644.733723 785.761246 645.329388 M 486.915409 86.431255 L 486.915409 86.431255 M 638.864769 311.887051 L 638.864769 311.887051 M 484.881932 92.92195 L 484.881932 92.92195 " stroke="#000000" stroke-width="1" stroke-opacity="1" stroke-miterlimit="4"></path></g></svg><style>@media (prefers-color-scheme: light) { :root { filter: none; } }
</style></svg>