<svg xmlns="http://www.w3.org/2000/svg" xmlns:xlink="http://www.w3.org/1999/xlink" width="500" zoomAndPan="magnify" viewBox="0 0 375 374.999991" height="500" preserveAspectRatio="xMidYMid meet" version="1.0"><defs><g/></defs><g fill="#ffffff" fill-opacity="1"><g transform="translate(81.130334, 292.648679)"><g><path d="M 12.40625 -8.75 C 7.144531 -14.769531 4.085938 -21.773438 3.234375 -29.765625 C 2.390625 -37.753906 2.765625 -46.265625 4.359375 -55.296875 C 5.960938 -64.328125 8.175781 -73.398438 11 -82.515625 C 13.820312 -91.640625 16.359375 -100.382812 18.609375 -108.75 C 20.867188 -117.125 22.09375 -124.507812 22.28125 -130.90625 C 22.46875 -135.976562 22.046875 -142.132812 21.015625 -149.375 C 19.984375 -156.625 19.132812 -164.007812 18.46875 -171.53125 C 17.8125 -179.050781 17.953125 -186.054688 18.890625 -192.546875 C 19.835938 -199.035156 22.378906 -204.253906 26.515625 -208.203125 C 28.023438 -209.710938 29.859375 -210.9375 32.015625 -211.875 C 34.179688 -212.8125 36.769531 -213.28125 39.78125 -213.28125 C 41.851562 -213.28125 44.109375 -213 46.546875 -212.4375 C 51.253906 -211.5 54.6875 -209.003906 56.84375 -204.953125 C 59.007812 -200.910156 60.375 -195.972656 60.9375 -190.140625 C 61.5 -184.316406 61.546875 -178.113281 61.078125 -171.53125 C 60.609375 -164.945312 60.09375 -158.597656 59.53125 -152.484375 C 58.96875 -146.367188 58.59375 -141.148438 58.40625 -136.828125 C 58.21875 -130.617188 58.3125 -123.566406 58.6875 -115.671875 C 59.0625 -107.773438 59.953125 -100.203125 61.359375 -92.953125 C 62.773438 -85.710938 64.796875 -79.691406 67.421875 -74.890625 C 70.054688 -70.097656 73.535156 -67.703125 77.859375 -67.703125 C 78.617188 -67.703125 79.75 -67.894531 81.25 -68.28125 C 87.832031 -70.34375 94.320312 -72.125 100.71875 -73.625 C 107.113281 -75.132812 113.039062 -75.890625 118.5 -75.890625 C 125.644531 -75.890625 131.894531 -74.242188 137.25 -70.953125 C 142.613281 -67.660156 146.613281 -61.691406 149.25 -53.046875 C 150.9375 -47.773438 151.640625 -42.082031 151.359375 -35.96875 C 151.078125 -29.851562 149.898438 -24.066406 147.828125 -18.609375 C 145.765625 -13.160156 142.707031 -8.695312 138.65625 -5.21875 C 134.613281 -1.738281 129.585938 0 123.578125 0 C 123.378906 0 123.234375 0 123.140625 0 C 123.046875 0 122.90625 0 122.71875 0 C 120.28125 0 117.082031 0 113.125 0 C 109.175781 0 104.757812 0 99.875 0 C 90.28125 0 79.789062 0 68.40625 0 C 57.03125 0 46.640625 0 37.234375 0 C 31.410156 0 26.332031 -0.84375 22 -2.53125 C 17.675781 -4.226562 14.476562 -6.300781 12.40625 -8.75 Z M 12.40625 -8.75 "/></g></g></g><g fill="#ffffff" fill-opacity="1"><g transform="translate(175.439729, 203.603172)"><g><path d="M 8.296875 -75.578125 C 7.960938 -78.941406 7.304688 -82.570312 6.328125 -86.46875 C 5.359375 -90.375 4.410156 -94.273438 3.484375 -98.171875 C 2.566406 -102.078125 1.972656 -105.707031 1.703125 -109.0625 C 1.429688 -112.425781 1.753906 -115.242188 2.671875 -117.515625 C 3.597656 -119.796875 5.472656 -121.316406 8.296875 -122.078125 C 9.484375 -122.285156 10.5625 -122.472656 11.53125 -122.640625 C 12.507812 -122.804688 13.429688 -122.890625 14.296875 -122.890625 C 17.765625 -122.890625 20.421875 -122.019531 22.265625 -120.28125 C 24.109375 -118.550781 25.488281 -116.300781 26.40625 -113.53125 C 27.332031 -110.769531 28.039062 -107.738281 28.53125 -104.4375 C 29.019531 -101.132812 29.585938 -97.910156 30.234375 -94.765625 C 32.398438 -84.035156 34.59375 -75.3125 36.8125 -68.59375 C 39.039062 -61.875 41.34375 -58.515625 43.71875 -58.515625 C 45.238281 -58.515625 46.457031 -60.03125 47.375 -63.0625 C 48.300781 -66.101562 49.195312 -69.867188 50.0625 -74.359375 C 50.925781 -78.859375 51.898438 -83.222656 52.984375 -87.453125 C 54.179688 -91.679688 54.992188 -95.828125 55.421875 -99.890625 C 55.859375 -103.953125 56.375 -107.660156 56.96875 -111.015625 C 57.5625 -114.378906 58.617188 -117.0625 60.140625 -119.0625 C 61.660156 -121.070312 64.097656 -122.078125 67.453125 -122.078125 C 71.460938 -122.078125 74.492188 -121.070312 76.546875 -119.0625 C 78.609375 -117.0625 79.9375 -114.40625 80.53125 -111.09375 C 81.132812 -107.789062 81.269531 -104.160156 80.9375 -100.203125 C 80.613281 -96.253906 80.019531 -92.273438 79.15625 -88.265625 C 78.289062 -84.253906 77.425781 -80.515625 76.5625 -77.046875 C 75.695312 -73.578125 75.097656 -70.757812 74.765625 -68.59375 C 74.222656 -65.125 73.789062 -61.0625 73.46875 -56.40625 C 73.144531 -51.75 72.710938 -46.84375 72.171875 -41.6875 C 71.628906 -36.539062 70.785156 -31.503906 69.640625 -26.578125 C 68.503906 -21.648438 66.828125 -17.179688 64.609375 -13.171875 C 62.390625 -9.160156 59.410156 -5.960938 55.671875 -3.578125 C 51.929688 -1.191406 47.191406 0 41.453125 0 C 34.617188 0 29.171875 -1.566406 25.109375 -4.703125 C 21.046875 -7.847656 17.984375 -12.078125 15.921875 -17.390625 C 13.867188 -22.703125 12.40625 -28.632812 11.53125 -35.1875 C 10.664062 -41.75 10.070312 -48.523438 9.75 -55.515625 C 9.425781 -62.503906 8.941406 -69.191406 8.296875 -75.578125 Z M 8.296875 -75.578125 "/></g></g></g></svg>